<?xml version="1.0" standalone="no"?>
<!DOCTYPE svg PUBLIC "-//W3C//DTD SVG 1.1//EN" "http://www.w3.org/Graphics/SVG/1.1/DTD/svg11.dtd" >
<svg xmlns="http://www.w3.org/2000/svg">
<metadata></metadata>
<defs>
<font id="DekoDisplaySerialBold" horiz-adv-x="1040" >
<font-face units-per-em="2048" ascent="1638" descent="-410" />
<missing-glyph horiz-adv-x="593" />
<glyph horiz-adv-x="0" />
<glyph horiz-adv-x="0" />
<glyph unicode="&#xd;" horiz-adv-x="593" />
<glyph unicode=" "  horiz-adv-x="593" />
<glyph unicode="&#x09;" horiz-adv-x="593" />
<glyph unicode="&#xa0;" horiz-adv-x="593" />
<glyph unicode="!" horiz-adv-x="534" d="M104 0v352h355v-352h-355zM106 446v1031h353v-1031h-353z" />
<glyph unicode="&#x22;" horiz-adv-x="1017" d="M0 961l199 514h362l-307 -514h-254zM414 961l198 514h363l-307 -514h-254z" />
<glyph unicode="#" horiz-adv-x="1298" d="M59 414l31 147h238l73 352h-235l31 148h237l86 414h148l-86 -414h176l88 414h147l-88 -414h236l-31 -148h-236l-75 -352h235l-30 -147h-236l-88 -414h-148l89 414h-179l-88 -414h-147l88 414h-236zM475 561h176l76 352h-178z" />
<glyph unicode="$" horiz-adv-x="931" d="M74 0v336h379v227h-179q-106 0 -152 66.5t-46 218.5v323q0 126 16 176.5t68 88.5q54 41 157 41h35l35 -2l2 190h156v-190l311 2v-326h-383v-215h205q92 0 134 -46t42 -147v-491q0 -93 -7.5 -125t-39.5 -68q-31 -33 -68.5 -46t-103.5 -13h-94v-176h-156v176h-311z" />
<glyph unicode="%" horiz-adv-x="1634" d="M74 831v543q0 105 119 105h358q59 0 90 -27t31 -78v-543q0 -70 -28 -97t-99 -27h-346q-71 0 -98 27t-27 97zM303 0l877 1559l149 -82l-883 -1557zM319 963q0 -37 12 -52.5t40 -15.5q29 0 40 15t11 53v274q0 61 -49 61q-54 0 -54 -61v-274zM963 125v541q0 104 120 104h359 q119 0 119 -104v-541q0 -72 -27 -99.5t-98 -27.5h-346q-72 0 -99.5 27.5t-27.5 99.5zM1208 254q0 -68 52 -68q30 0 41.5 14.5t11.5 53.5v274q0 62 -51 62q-25 0 -39.5 -16.5t-14.5 -45.5v-274z" />
<glyph unicode="&#x26;" horiz-adv-x="1368" d="M74 176v418q0 44 12 65q11 20 29 36t78 55l77 51l-98 96l-31 47q-19 28 -24.5 43.5t-5.5 42.5v309q0 69 44 103.5t136 34.5h561q62 0 83 -6t44 -29q33 -36 33 -94v-316q0 -55 -5.5 -79.5t-23.5 -47.5q-40 -49 -111 -84l-92 -45l219 -248l187 123l182 -241l-186 -119 q35 -55 131 -189q6 -10 55 -102h-410q-39 55 -77 111l-90 -54q-41 -25 -92.5 -41t-88.5 -16h-334q-114 0 -158 38.5t-44 137.5zM426 354q0 -28 17.5 -46.5t45.5 -18.5h64q64 0 94 18l51 33l-217 254q-55 -32 -55 -74v-166zM475 1108q0 -52 23 -72l65 -57l76 55q13 9 18 23.5 t5 44.5v74q0 47 -54 47h-78q-55 0 -55 -45v-70z" />
<glyph unicode="'" horiz-adv-x="604" d="M0 961l199 514h362l-307 -514h-254z" />
<glyph unicode="(" horiz-adv-x="555" d="M59 737q0 154 4 229.5t21 198.5q21 162 42 250t73 236h356q-49 -157 -69.5 -248t-39.5 -229q-30 -245 -30 -437q0 -215 30 -436q17 -132 38.5 -225t70.5 -252h-356q-52 150 -73 237.5t-42 249.5q-17 122 -21 197t-4 229z" />
<glyph unicode=")" horiz-adv-x="555" d="M0 -176q74 240 106.5 445t32.5 468q0 265 -32.5 471t-106.5 443h356q52 -141 72 -228t43 -258q17 -128 22 -204.5t5 -223.5t-5 -223.5t-22 -202.5q-23 -170 -43 -257t-72 -230h-356z" />
<glyph unicode="*" horiz-adv-x="964" d="M45 1067q0 44 14 115l193 -17l-152 117q45 66 72 93.5t90 70.5l121 -152l-16 193q77 18 114 18q42 0 111 -14l-17 -191l117 150q66 -44 93.5 -71t70.5 -89l-145 -123l192 23q19 -101 19 -119q0 -43 -19 -110l-188 10l147 -121q-45 -66 -72 -93t-90 -69l-125 148l19 -191 q-69 -14 -109 -14q-47 0 -110 16v191l-113 -150q-63 42 -89.5 69t-70.5 93l146 127l-189 -21q-14 69 -14 111z" />
<glyph unicode="+" horiz-adv-x="1046" d="M59 348v238h347v346h237v-346h346v-238h-344v-348h-239v348h-347z" />
<glyph unicode="," horiz-adv-x="561" d="M-45 -209l201 514h360l-305 -514h-256z" />
<glyph unicode="-" horiz-adv-x="647" d="M45 403v332h557v-332h-557z" />
<glyph unicode="." horiz-adv-x="485" d="M59 0v354h353v-354h-353z" />
<glyph unicode="/" horiz-adv-x="1056" d="M16 0l877 1559l147 -82l-880 -1557z" />
<glyph unicode="0" horiz-adv-x="1052" d="M74 242v1011q0 97 49 160.5t123 63.5h557q75 0 124.5 -63.5t49.5 -160.5v-1011q0 -135 -49.5 -188.5t-173.5 -53.5h-455q-125 0 -175 53.5t-50 188.5zM444 385q0 -43 20.5 -66.5t57.5 -23.5q84 0 84 90v725q0 43 -22 67.5t-60 24.5t-59 -24t-21 -68v-725z" />
<glyph unicode="1" horiz-adv-x="1042" d="M168 0v326h186v825h-186l156 326h405v-1151h193v-326h-754z" />
<glyph unicode="2" horiz-adv-x="1048" d="M70 838v477q0 162 200 162h531q57 0 91 -13t55 -50t28.5 -94.5t7.5 -154.5q0 -286 -164 -581q-43 -75 -84 -126.5t-125 -140.5h371v-317h-907v301q404 282 499 664q23 88 23 129q0 46 -18.5 64t-67.5 18q-34 0 -54 -20t-20 -56v-262h-366z" />
<glyph unicode="3" horiz-adv-x="1052" d="M76 172v332h370v-148q0 -43 18 -62.5t56 -19.5q78 0 78 84v164q0 38 -16.5 54t-57.5 16h-96v282h96q44 0 61 18t17 64v146q0 31 -22 50t-56 19q-32 0 -51.5 -17t-19.5 -46v-172h-377v379q0 55 9.5 82t35.5 49q25 19 50.5 25t84.5 6h500q79 0 103 -6t54 -33q28 -26 46 -64 t18 -69v-332q0 -83 -6.5 -110t-34.5 -56q-20 -27 -53 -41q-7 -2 -21.5 -8t-35.5 -12.5t-52 -14.5q201 -27 201 -186v-291q0 -117 -39 -172q-23 -35 -68 -58.5t-88 -23.5h-555q-44 0 -104 35q-26 21 -35.5 51t-9.5 86z" />
<glyph unicode="4" horiz-adv-x="1048" d="M-18 262l432 1215h547v-932h106v-287h-96l-17 -258h-360v262h-612zM375 547h215v618z" />
<glyph unicode="5" horiz-adv-x="1052" d="M78 172v342h356v-129q0 -60 22 -85.5t72 -25.5q40 0 58 24.5t18 82.5v313h-526v783h852v-326h-449v-141h310q63 0 82.5 -5t50.5 -28q51 -42 51 -107v-634q0 -71 -10.5 -105t-42.5 -68q-24 -27 -66.5 -45t-79.5 -18h-528q-170 0 -170 172z" />
<glyph unicode="6" horiz-adv-x="1052" d="M80 209v1085q0 105 59 152q26 20 50 25.5t90 5.5h514q63 0 88.5 -8.5t52.5 -36.5q39 -49 39 -101v-350h-322v76q0 61 -9 83.5t-40 41.5q-21 16 -55 16q-43 0 -66.5 -23.5t-23.5 -64.5v-219h334q89 0 130.5 -48t41.5 -151v-483q0 -59 -6.5 -86.5t-26.5 -56.5 q-26 -37 -63 -51.5t-107 -14.5h-463q-116 0 -166.5 48.5t-50.5 160.5zM455 348q0 -37 19.5 -57.5t53.5 -20.5q66 0 66 86v166q0 38 -21 62t-53 24q-35 0 -50 -21.5t-15 -68.5v-170z" />
<glyph unicode="7" horiz-adv-x="1052" d="M18 1151v326h1016l-631 -1477h-378l503 1151h-510z" />
<glyph unicode="8" horiz-adv-x="1052" d="M84 195v378q0 37 15.5 72t41.5 55q42 31 140 48q-101 22 -129 38q-66 40 -66 123v414q0 67 46.5 110.5t117.5 43.5h551q73 0 118.5 -43t45.5 -111v-414q0 -82 -64 -123q-27 -15 -131 -38q93 -16 139 -48q27 -20 42.5 -54.5t15.5 -72.5v-389q0 -74 -35 -129t-82 -55h-565 q-44 0 -85 11t-59 26q-23 20 -40 67t-17 91zM449 360q0 -94 77 -94q76 0 76 94v158q0 34 -22 57t-54 23t-54.5 -23t-22.5 -57v-158zM453 971q0 -44 18.5 -68t52.5 -24q37 0 56.5 24t19.5 68v186q0 29 -21 46.5t-55 17.5q-32 0 -51.5 -17.5t-19.5 -46.5v-186z" />
<glyph unicode="9" horiz-adv-x="1052" d="M80 145v351h321v-78q0 -59 9 -81.5t39 -43.5q22 -14 55 -14q44 0 68 22.5t24 65.5v219h-334q-91 0 -132.5 47.5t-41.5 148.5v484q0 60 6 87.5t25 55.5q29 40 65.5 54t108.5 14h463q114 0 165.5 -49.5t51.5 -159.5v-1086q0 -103 -62 -151q-26 -21 -48 -26t-91 -5h-514 q-65 0 -91 8t-50 37q-37 46 -37 100zM459 952q0 -38 19.5 -62t51.5 -24q68 0 68 92v168q0 37 -20.5 58.5t-55.5 21.5q-63 0 -63 -88v-166z" />
<glyph unicode=":" horiz-adv-x="530" d="M104 0v354h355v-354h-355zM104 801v350h355v-350h-355z" />
<glyph unicode=";" horiz-adv-x="530" d="M-66 -209l199 514h361l-306 -514h-254zM104 797v354h353v-354h-353z" />
<glyph unicode="&#x3c;" horiz-adv-x="579" d="M35 580l178 571h332l-180 -571l178 -580h-324z" />
<glyph unicode="=" horiz-adv-x="1052" d="M59 170v238h932v-238h-932zM59 526v238h932v-238h-932z" />
<glyph unicode="&#x3e;" horiz-adv-x="579" d="M35 0l178 592l-176 559h323l185 -557l-178 -594h-332z" />
<glyph unicode="?" horiz-adv-x="931" d="M45 1028v279q0 82 43 126t123 44h457q69 0 96.5 -11t56.5 -49q22 -28 28.5 -55t6.5 -86v-393q0 -103 -34.5 -150.5t-129.5 -73.5q-122 -32 -153 -54.5t-31 -78.5v-77h-354v147q0 56 32 106q4 7 9 12.5t8.5 9t11 9t11.5 8.5t16.5 11.5t19.5 13.5l43 29l74 41q21 10 37 32 q32 32 42.5 62.5t10.5 85.5v192h-123v-180h-301zM154 0v352h348l2 -352h-350z" />
<glyph unicode="@" horiz-adv-x="1771" d="M121 629q-25 263 71.5 458.5t303.5 315.5q199 112 436 100q107 -6 202.5 -42t169.5 -95t128 -140t80.5 -172.5t23 -196t-40.5 -208.5q-43 -121 -114 -203.5t-154 -117.5q-74 -28 -133 -20.5t-97.5 43.5t-44.5 87q-2 8 -2 25q-26 -51 -55 -84q-44 -50 -108.5 -65 t-131.5 9.5t-114 86.5q-81 109 -72 286q3 69 23 148q27 97 78.5 174.5t115.5 120.5q53 37 111 49.5t106 2t85 -39.5t52 -72l15 92h110l-73 -417l-25 -162q-6 -47 -6 -88q0 -49 31.5 -73.5t74.5 -10.5q41 13 101 78q35 35 61 86q45 78 64 172q21 144 -15 267.5t-116 204.5 t-201 118.5t-262 17.5q-161 -23 -285 -121t-187 -253.5t-46 -338.5q9 -108 57 -211q63 -132 165.5 -218t223 -116t257 -3t263.5 114q122 81 201 203l22 -137q-2 -2 -20 -26.5t-29 -35.5q-230 -254 -567 -254q-192 -1 -353 83.5t-261.5 236t-118.5 342.5zM608 600 q6 -77 27 -121q19 -38 57.5 -56.5t80.5 -12.5t71 36q30 32 69.5 129t53.5 183q1 4 8.5 48t10.5 62.5t5.5 51.5t1.5 55q-3 70 -58.5 104t-123.5 6q-53 -21 -90.5 -70t-71.5 -147q-18 -57 -30.5 -133.5t-10.5 -134.5z" />
<glyph unicode="A" horiz-adv-x="1101" d="M74 0v1262q0 66 10 101t37 62q52 52 133 52h594q79 0 131 -52q28 -28 38.5 -63t10.5 -100v-1262h-397v324h-160v-324h-397zM471 637h158v428q0 52 -19.5 76t-62.5 24q-76 0 -76 -100v-428z" />
<glyph unicode="B" horiz-adv-x="1089" d="M74 0v1477h692q51 0 85.5 -6.5t60.5 -20.5t51 -39q59 -59 59 -158v-272q0 -55 -16 -95.5t-48 -68t-70.5 -45t-94.5 -31.5q62 -12 88.5 -19.5t56.5 -23.5q44 -25 69 -70.5t25 -103.5v-280q0 -67 -17 -111.5t-57 -81.5q-36 -33 -67 -42t-107 -9h-710zM475 309h68 q23 0 38.5 4t25.5 13.5t14 24t4 36.5v117q0 44 -20 61t-70 17h-60v-273zM479 903l60 -6q2 -2 10 -2q38 0 60 26t22 72v76q0 42 -23 65t-65 23h-64v-254z" />
<glyph unicode="C" horiz-adv-x="749" d="M74 274v926q0 64 21.5 123.5t58.5 99.5q33 36 61.5 45t110.5 9h382v-355h-155q-72 0 -72 -73v-623q0 -35 18.5 -54.5t51.5 -19.5h151v-352h-376q-73 0 -106.5 10.5t-65.5 42.5q-36 39 -58 98.5t-22 122.5z" />
<glyph unicode="D" horiz-adv-x="1099" d="M74 0v1477h729q223 0 223 -291v-897q0 -140 -56.5 -214.5t-162.5 -74.5h-733zM471 332h72q49 0 66.5 25t17.5 96v585q0 113 -86 113h-70v-819z" />
<glyph unicode="E" horiz-adv-x="944" d="M74 303v860q0 151 63 240q32 45 70.5 59.5t126.5 14.5h534v-326h-393v-250h393v-334h-395v-235h393v-332h-528q-264 0 -264 303z" />
<glyph unicode="F" horiz-adv-x="788" d="M74 0v1477h676v-326h-269v-252h264v-342h-270v-557h-401z" />
<glyph unicode="G" horiz-adv-x="1110" d="M74 285v948q0 132 57 192q38 44 90 50q3 0 37.5 1t65.5 1h710v-367q-45 20 -59 27q-38 10 -139 10h-271q-34 0 -58 -17t-32 -45q0 -1 -1 -25t-1 -48v-578q0 -47 16.5 -65.5t57.5 -18.5h90v322q0 58 -10 93.5t-41 86.5h448v-545q0 -101 -5.5 -138.5t-27.5 -78.5 q-22 -40 -63 -65t-84 -25h-578q-61 0 -94.5 13t-60.5 46q-28 36 -37.5 83.5t-9.5 142.5z" />
<glyph unicode="H" horiz-adv-x="1110" d="M74 0v1477h399v-559h162v559h401v-1477h-401v573h-162v-573h-399z" />
<glyph unicode="I" horiz-adv-x="546" d="M74 0v1477h399v-1477h-399z" />
<glyph unicode="J" horiz-adv-x="638" d="M-29 0l27 381l37 -8q27 -11 55 -11q42 0 58 23.5t16 85.5v1006h403v-1166q0 -97 -23 -159t-81 -107q-93 -72 -273 -72q-97 0 -219 27z" />
<glyph unicode="K" horiz-adv-x="1122" d="M74 0v1477h397v-574h27q61 0 96 36t35 99v328q0 37 26 111h420q-28 -66 -36.5 -102.5t-8.5 -88.5v-297q0 -121 -80 -172q-7 -5 -13 -8.5t-14.5 -8t-14 -6.5t-19 -7.5t-21.5 -8t-29.5 -10t-35.5 -12.5q106 -26 141 -43q109 -53 109 -226v-297q0 -84 4.5 -113t27.5 -77 h-401q-23 34 -29 62.5t-6 91.5v286q0 58 -26 83.5t-86 25.5h-11l-55 -2v-547h-397z" />
<glyph unicode="L" horiz-adv-x="716" d="M45 1477h473q-17 -62 -24 -90.5t-14 -80.5t-7 -106v-848q35 -4 68 -4q81 0 207 37l-62 -385h-608v1169q0 96 -5.5 148t-27.5 160z" />
<glyph unicode="M" horiz-adv-x="1667" d="M29 1477h405q21 -68 27 -105t6 -100v-17l29 68q39 90 71 122t86 32h244q29 0 60 -14.5t49 -35.5q17 -21 24.5 -48t16.5 -97q7 15 14.5 36t9.5 25q28 74 64 104t100 30l188 2q85 0 129 -58q23 -30 31 -70.5t8 -121.5v-1229h-397l4 1044q0 101 -80 101q-37 0 -58.5 -29 t-21.5 -76v-1040h-399v1034q0 107 -84 107q-80 0 -80 -107v-1034h-399v1208q0 75 -8 122.5t-39 146.5z" />
<glyph unicode="N" horiz-adv-x="1107" d="M29 1477h411q19 -55 24.5 -86.5t6.5 -104.5q20 58 35.5 86t40.5 53q52 52 137 52h166q107 0 156 -80q17 -26 22.5 -60.5t5.5 -111.5v-1225h-401v1022q0 57 -19 82.5t-59 25.5q-80 0 -80 -112v-1018h-399v1210q0 75 -8.5 124.5t-38.5 142.5z" />
<glyph unicode="O" horiz-adv-x="1095" d="M59 545v375q0 255 43 380q61 177 351 177h194q147 0 225.5 -40t118.5 -137q42 -98 45 -196q0 -8 1 -69t1 -115v-375q0 -181 -28 -279q-26 -93 -90 -157q-66 -69 -135 -89t-236 -20h-103q-163 0 -266 109q-67 70 -94 168t-27 268zM471 449q0 -58 6.5 -79t30.5 -36 q15 -12 41 -12q28 0 50 16.5t26 42.5q2 16 2 68v634q0 56 -17.5 79.5t-58.5 23.5q-44 0 -62 -23t-18 -80v-634z" />
<glyph unicode="P" horiz-adv-x="1058" d="M74 0v1477h725q83 0 119.5 -13t64.5 -51q25 -34 35 -81t10 -134v-410q0 -98 -10.5 -152t-36.5 -95q-25 -37 -72.5 -58.5t-107.5 -21.5h-328v-461h-399zM479 797h74q42 0 60 21t18 71v174q0 46 -19.5 67t-62.5 21h-70v-354z" />
<glyph unicode="Q" horiz-adv-x="1095" d="M59 545v375q0 255 43 380q21 60 65.5 99t116 58.5t169.5 19.5h194q147 0 225.5 -40t118.5 -137q42 -98 45 -196q0 -8 1 -69t1 -115v-375q0 -173 -23 -265t-95 -171q-37 -38 -67 -57.5t-65.5 -29.5t-95.5 -16v-108q0 -20 6 -31.5t18.5 -17t33.5 -5.5l114 2v-243l-323 -2 q-40 0 -67.5 12.5t-41.5 36.5t-14 59v293q-92 11 -139.5 32t-98.5 75q-58 63 -78 119.5t-32 170.5q-11 96 -11 146zM471 449q0 -41 2.5 -60.5t10 -32t24.5 -22.5q15 -12 41 -12q14 0 27 4.5t23 12t17 18.5t9 24q2 16 2 68v634q0 56 -17.5 79.5t-58.5 23.5q-44 0 -62 -23 t-18 -80v-634z" />
<glyph unicode="R" horiz-adv-x="1103" d="M74 0v1477h671q90 0 133 -12t80 -48q74 -68 74 -188v-211q0 -138 -67 -205q-25 -25 -59 -38t-105 -25q65 -11 97.5 -22.5t62.5 -35.5q43 -32 60 -77t17 -123v-320q0 -59 9 -87.5t45 -84.5h-426q-41 74 -41 156v307q0 90 -90 90h-62v-553h-399zM475 891h45q62 0 83.5 26 t21.5 101v10q0 76 -20.5 102.5t-90.5 26.5h-39v-266z" />
<glyph unicode="S" horiz-adv-x="892" d="M53 0v336h379v227h-180q-105 0 -151 66.5t-46 218.5v323q0 126 16 176.5t68 88.5q36 27 69.5 34t123.5 7h506v-326h-383v-215h200q95 0 138 -46t43 -147v-491q0 -91 -8.5 -123.5t-41.5 -69.5q-31 -33 -68 -46t-102 -13h-563z" />
<glyph unicode="T" horiz-adv-x="768" d="M-16 1151v326h798v-326h-202v-1151h-398v1151h-198z" />
<glyph unicode="U" horiz-adv-x="1107" d="M74 190v1287h399v-1057q0 -57 17.5 -83t64.5 -26q27 0 49 15q22 14 26.5 29t4.5 75v1047h399v-1287q0 -115 -33 -152.5t-133 -37.5h-626q-101 0 -134.5 37.5t-33.5 152.5z" />
<glyph unicode="V" horiz-adv-x="1085" d="M59 1044v433h400v-664q0 -91 2.5 -131t11.5 -109q10 -69 23 -108t47 -109q32 67 44 106.5t23 110.5q8 51 11 78t4.5 63.5t1.5 98.5v664h399v-559q0 -172 -41 -369q-18 -94 -59 -205q-35 -95 -65.5 -161t-94.5 -183h-447q-36 61 -71 133q-47 88 -85.5 200.5t-62.5 215.5 q-41 202 -41 495z" />
<glyph unicode="W" horiz-adv-x="1654" d="M74 387v1090h397v-1045q0 -117 80 -117q82 0 82 123v1039h389v-1039q0 -123 82 -123q80 0 80 117v1045h397v-1090q0 -107 -11.5 -168t-39.5 -115q-31 -57 -80.5 -80.5t-136.5 -23.5h-228q-68 0 -111.5 23.5t-80.5 78.5q-28 42 -42 82.5t-24 114.5q-19 -141 -78.5 -220 t-177.5 -79h-227q-87 0 -136 23.5t-81 80.5q-30 53 -41.5 114.5t-11.5 168.5z" />
<glyph unicode="X" horiz-adv-x="1116" d="M74 0v530q0 84 71 142q25 19 47.5 30t81.5 35q-115 42 -156.5 96.5t-41.5 157.5v486h399v-424q0 -31 10 -76q9 -39 22.5 -61t49.5 -58q35 35 47 53q35 61 35 142v424h401v-486q0 -66 -16 -106.5t-57 -77.5q-27 -25 -51 -38.5t-74 -31.5q41 -17 62 -26.5t52 -29t46 -38 t26.5 -48t11.5 -65.5v-530h-397v397q0 28 -12 86q-14 43 -27 63.5t-47 49.5q-7 -7 -20.5 -19t-16.5 -16q-21 -27 -35 -73.5t-14 -90.5v-397h-397z" />
<glyph unicode="Y" horiz-adv-x="1073" d="M59 909v568h398v-588q0 -54 10 -109q9 -40 22 -63t48 -58q45 42 63 92t18 138v588h396v-568q0 -89 -28 -178.5t-79 -161.5q-30 -45 -64.5 -79t-107.5 -93v-397h-397v397q-72 59 -107 93t-67 79q-105 148 -105 340z" />
<glyph unicode="Z" horiz-adv-x="835" d="M6 0l330 1151h-330l60 326h770l-344 -1121h325l-49 -356h-762z" />
<glyph unicode="[" horiz-adv-x="509" d="M74 -190v1857h420v-192h-91v-1475h91v-190h-420z" />
<glyph unicode="\" horiz-adv-x="727" d="M59 1475h295l258 -1475h-295z" />
<glyph unicode="]" horiz-adv-x="509" d="M16 2h88v1475h-88v190h418v-1857h-418v192z" />
<glyph unicode="^" horiz-adv-x="706" d="M0 1225l141 254h428l138 -254h-297l-58 114l-61 -114h-291z" />
<glyph unicode="_" horiz-adv-x="925" d="M59 0h738v-137h-738v137z" />
<glyph unicode="`" horiz-adv-x="561" d="M0 1479h358l129 -254h-239z" />
<glyph unicode="a" d="M74 238v700q0 93 55.5 153t140.5 60h142q43 0 67 -11t51 -44q29 -34 64 -92v147h371v-1151h-365v158q-42 -71 -74 -107q-26 -31 -49.5 -41t-66.5 -10h-111q-97 0 -160 57q-38 33 -51.5 72t-13.5 109zM446 367q0 -43 20.5 -69t55.5 -26q34 0 54 24t20 64v433 q0 37 -20.5 59t-55.5 22q-74 0 -74 -92v-415z" />
<glyph unicode="b" horiz-adv-x="1030" d="M74 0v1477h372v-514q44 96 65 124q47 64 120 64h149q78 0 127 -56.5t49 -148.5v-733q0 -213 -182 -213h-135q-69 0 -111.5 31t-83.5 114v-145h-370zM444 352q0 -43 22 -68.5t60 -25.5q29 0 50 16t22 41q2 4 2 43v439q0 32 -20 51.5t-52 19.5q-46 0 -65 -22t-19 -76v-418z " />
<glyph unicode="c" horiz-adv-x="700" d="M74 162v803q0 98 48.5 142t156.5 44h374v-289h-127q-53 0 -68.5 -14.5t-15.5 -65.5v-432q0 -43 19 -56t82 -13h112v-281h-405q-56 0 -79 5.5t-44 25.5q-53 39 -53 131z" />
<glyph unicode="d" horiz-adv-x="1042" d="M74 201v743q0 91 49.5 149t128.5 58h141q77 0 116 -34.5t91 -149.5v510h371v-1477h-375v152q-40 -79 -83.5 -115.5t-98.5 -36.5h-170q-83 0 -126.5 52t-43.5 149zM442 334q0 -29 21.5 -50.5t50.5 -21.5q31 0 56.5 27t25.5 61v445q0 36 -21.5 56.5t-58.5 20.5 q-35 0 -54.5 -23.5t-19.5 -64.5v-450z" />
<glyph unicode="e" horiz-adv-x="1005" d="M74 223v740q0 99 55 151q28 25 52 31t104 6h452q66 0 100 -11.5t60 -43.5q20 -26 26.5 -53.5t6.5 -84.5v-516h-492v-94q0 -34 18.5 -46.5t65.5 -12.5h406v-289h-725q-31 3 -68 29q-37 28 -49 67t-12 127zM440 649h140v148q0 37 -18.5 58.5t-49.5 21.5q-32 0 -52 -21.5 t-20 -56.5v-150z" />
<glyph unicode="f" horiz-adv-x="600" d="M8 737v297h101v121q0 109 14 167t51 101q43 49 109 52q3 0 33.5 1t56.5 1h233v-267h-41q-46 0 -64 -18t-18 -64v-94h123v-297h-127v-737h-368v737h-103z" />
<glyph unicode="g" d="M74 -115h325v-14q0 -41 23 -60.5t74 -19.5q102 0 102 82v127h-322q-98 0 -139 35q-36 32 -48.5 93t-12.5 202v514q0 137 14 185t66 89q25 19 57 26t94 7h461q109 0 153 -47.5t44 -167.5v-1112q0 -105 -41 -154q-25 -28 -67 -48.5t-75 -20.5h-518q-42 0 -84.5 17t-66.5 44 q-22 22 -30.5 51t-8.5 80v92zM444 365q0 -103 78 -103q24 0 45 14q22 17 26.5 32.5t4.5 70.5v416q0 79 -74 79q-37 0 -58.5 -21t-21.5 -56v-432z" />
<glyph unicode="h" horiz-adv-x="1036" d="M74 0v1477h370v-521q37 106 81 150.5t112 44.5h145q92 0 136.5 -52.5t44.5 -162.5v-936h-369v801q0 37 -19.5 57.5t-54.5 20.5q-38 0 -60 -23t-22 -63l4 -793h-368z" />
<glyph unicode="i" horiz-adv-x="518" d="M74 1223v254h370v-254h-370zM76 0v1151h368v-1151h-368z" />
<glyph unicode="j" horiz-adv-x="520" d="M74 -399v1550h370v-1550h-370zM78 1225v252h368v-252h-368z" />
<glyph unicode="k" horiz-adv-x="1021" d="M74 0v1477h370v-772h37l4 -3q107 0 107 142v307h364v-305q0 -56 -11.5 -89.5t-43.5 -68.5q-32 -36 -68 -55t-126 -49q146 -20 197.5 -65t51.5 -152v-195q0 -65 9.5 -96t42.5 -76h-383q-23 42 -29 72t-6 100v139q0 58 -25 84.5t-78 26.5h-14l-29 -2v-420h-370z" />
<glyph unicode="l" horiz-adv-x="516" d="M74 0v1477h366v-1477h-366z" />
<glyph unicode="m" horiz-adv-x="1564" d="M74 0v1151h366v-170q40 79 89 124.5t122 45.5h140q75 0 117 -41.5t63 -120.5q46 84 96.5 123t114.5 39h112q106 0 158 -61q22 -25 30.5 -59.5t8.5 -98.5v-932h-371v803q0 40 -19 63t-54 23q-38 0 -60 -24t-22 -64v-801h-367v799q0 82 -72 82q-38 0 -61 -22t-23 -60v-799 h-368z" />
<glyph unicode="n" horiz-adv-x="1036" d="M74 1151h366v-160q20 35 37.5 60t42 49.5t54.5 37.5t65 13h152q90 0 143 -66q21 -29 24 -57q5 -40 5 -147v-881h-371v793q0 88 -66 88q-82 0 -82 -95v-786h-366z" />
<glyph unicode="o" horiz-adv-x="1038" d="M74 190v789q0 59 35 112t88 58q12 2 86 2h475q74 0 84 -2q30 -3 65 -33q58 -47 58 -137v-789q0 -97 -50.5 -143.5t-156.5 -46.5h-477q-207 0 -207 190zM446 356q0 -40 19.5 -62t54.5 -22t54.5 22t19.5 62v447q0 31 -21 52.5t-53 21.5q-31 0 -52.5 -21.5t-21.5 -52.5v-447 z" />
<glyph unicode="p" d="M74 -399v1550h381v-166q38 83 65 119q18 24 36.5 32.5t54 11.5t130.5 3h19q66 0 99.5 -14t62.5 -54q43 -62 43 -184v-620q0 -271 -199 -277l-80 -2h-20q-44 0 -68 7.5t-57 31.5q-37 28 -56 49.5t-41 65.5v-553h-370zM455 373q0 -94 71 -94q70 0 70 98v436q0 32 -20 51 t-54 19q-67 0 -67 -74v-436z" />
<glyph unicode="q" d="M74 279v620q0 123 45 184q28 40 61.5 54t98.5 14h18q133 0 165 -6.5t58 -40.5q22 -29 64 -119v166h381v-1550h-369v553q-25 -45 -44.5 -68.5t-53.5 -46.5q-41 -28 -62.5 -33.5t-81.5 -5.5h-65q-215 0 -215 279zM444 377q0 -51 16.5 -74.5t53.5 -23.5q72 0 72 94v436 q0 74 -68 74q-35 0 -54.5 -18.5t-19.5 -51.5v-436z" />
<glyph unicode="r" horiz-adv-x="776" d="M74 0v1151h370v-174q18 39 29 60t31 50.5t39.5 44t49 26t64.5 11.5q45 0 99 -24l-41 -418l-273 121v-848h-368z" />
<glyph unicode="s" horiz-adv-x="911" d="M74 0v285h393v121h-252q-139 0 -139 131v446q0 54 14 86t49 55q41 25 62 25q8 2 57 2h578v-283h-394v-129h252q65 0 105.5 -40.5t40.5 -104.5v-453q0 -61 -38 -101t-97 -40h-631z" />
<glyph unicode="t" horiz-adv-x="667" d="M8 737v297h121v367h365v-367h165v-297h-163v-383q0 -44 18.5 -57.5t79.5 -13.5h65v-283h-383q-76 0 -112.5 48t-36.5 147v542h-119z" />
<glyph unicode="u" horiz-adv-x="1036" d="M74 283v868h368v-799q0 -47 17.5 -66.5t60.5 -19.5q40 0 57 20t17 66v799h369v-868q0 -283 -269 -283h-354q-266 0 -266 283z" />
<glyph unicode="v" horiz-adv-x="1017" d="M59 745v406h371v-508q0 -122 16 -223q13 -72 64 -150q50 76 63 150q17 107 17 223v508h371v-406q0 -210 -50 -374q-29 -101 -70.5 -176t-133.5 -195h-396q-91 118 -131 192t-71 179q-50 168 -50 374z" />
<glyph unicode="w" horiz-adv-x="1548" d="M74 340v811h366v-758q0 -69 17.5 -97t58.5 -28q30 0 55 25q17 19 22 37.5t5 68.5v752h352v-752q0 -70 19.5 -100.5t62.5 -30.5q41 0 58.5 28t17.5 97v758h367v-811q0 -154 -75 -247t-198 -93h-196q-108 0 -168 94q-23 33 -36.5 75.5t-27.5 121.5q-12 -78 -25 -119 t-38 -78q-28 -44 -72.5 -69t-95.5 -25h-195q-124 0 -199 93t-75 247z" />
<glyph unicode="x" horiz-adv-x="1046" d="M74 811v340h368v-299q0 -116 80 -160q82 43 82 160v299h371v-340q0 -38 -14 -76.5t-37 -66.5q-16 -18 -32.5 -30t-39.5 -22t-61 -22q182 -46 182 -195v-399h-373v305q0 54 -20.5 91.5t-57.5 52.5q-37 -15 -56.5 -52.5t-19.5 -91.5v-305h-370v399q0 77 48.5 125.5 t131.5 69.5q-54 17 -81 32.5t-50 41.5q-51 57 -51 143z" />
<glyph unicode="y" horiz-adv-x="1003" d="M59 801v350h375v-485l-2 -99q0 -74 10 -125q7 -43 19 -71t41 -76q69 123 69 272v584h373v-350q0 -389 -121 -625q-24 -47 -51.5 -82t-85.5 -94v-399h-369l7 399q-54 54 -68 72q-122 141 -174 444q-23 135 -23 285z" />
<glyph unicode="z" horiz-adv-x="788" d="M27 0l272 862h-227v289h696l-272 -872h262v-279h-731z" />
<glyph unicode="{" horiz-adv-x="813" d="M59 737q59 2 98.5 43.5t39.5 104.5v635q0 97 53.5 150.5t148.5 53.5h293v-176h-26q-62 0 -88.5 -23t-26.5 -75v-520q0 -28 -8.5 -55t-24.5 -50.5t-38 -42t-50.5 -30t-60.5 -15.5q80 -9 131 -64t51 -128v-520q0 -53 27 -76t88 -23h26v-176h-293q-95 0 -148.5 54.5 t-53.5 150.5v635q0 62 -39.5 103.5t-98.5 43.5z" />
<glyph unicode="|" horiz-adv-x="446" d="M59 0v1475h295v-1475h-295z" />
<glyph unicode="}" horiz-adv-x="813" d="M59 -74h27q62 0 88.5 23t26.5 76v520q0 72 51.5 127.5t130.5 64.5q-79 9 -130.5 65.5t-51.5 127.5v520q0 53 -26 75.5t-89 22.5h-27v176h293q95 0 149 -54.5t54 -149.5v-635q0 -62 39.5 -104t97.5 -44q-58 -2 -97.5 -43.5t-39.5 -103.5v-635q0 -97 -54 -151t-149 -54 h-293v176z" />
<glyph unicode="~" horiz-adv-x="892" d="M0 1550q12 75 28.5 114.5t51.5 80.5q68 74 176 74q85 0 199 -43q12 -5 26 -10.5t21.5 -8.5t11.5 -4q53 -20 94 -20q28 0 48.5 14t27.5 39h209q-11 -62 -19.5 -90.5t-27.5 -57.5q-29 -47 -83.5 -74.5t-119.5 -27.5q-105 0 -178 31l-68 28q-66 27 -112 27 q-34 0 -50.5 -15.5t-25.5 -56.5h-209z" />
<glyph unicode="&#xa1;" horiz-adv-x="534" d="M104 0v1028h355v-1028h-355zM104 1124v353h355v-353h-355z" />
<glyph unicode="&#xa2;" horiz-adv-x="686" d="M74 162v803q0 186 188 186h17l65 -4l2 196l143 -2v-192l164 2v-289h-127q-53 0 -68.5 -14.5t-15.5 -65.5v-432q0 -43 19 -56t82 -13h112v-281h-170l2 -180h-143v180h-94q-56 0 -79 5.5t-44 25.5q-53 39 -53 131z" />
<glyph unicode="&#xa3;" horiz-adv-x="991" d="M45 0v184q88 38 114.5 84.5t26.5 161.5v205h-139v151l23 -2l32 2h84v416q0 123 74 199t195 76h321l49 2h54l41 6v-346q-64 12 -111 12h-53q-43 0 -84 -11.5t-64 -31.5q-21 -18 -28 -50.5t-7 -107.5v-159h132q50 0 83 2v-164q-31 4 -81 4h-138v-160q0 -56 -34 -111 q-16 -28 -36 -49t-77 -75q94 32 149 45q136 39 254 39q10 0 24 -1t34.5 -2t36.5 -2v-317h-875z" />
<glyph unicode="&#xa4;" horiz-adv-x="1017" d="M59 426l109 106q-60 103 -58 215t58 205l-105 105q41 56 89 96l112 -115q94 67 208 67.5t208 -65.5l111 115q73 -66 92 -100l-107 -101q71 -95 68 -217q0 -114 -70 -209l109 -106q-68 -75 -92 -96l-111 110q-92 -68 -207 -68t-207 68l-116 -108q-10 9 -49.5 51t-41.5 47z M236 737.5q0 -99.5 70 -169.5t169 -70q101 0 170 69q71 71 71 170.5t-71 169.5q-70 70 -170 70q-99 0 -169 -70t-70 -169.5z" />
<glyph unicode="&#xa5;" horiz-adv-x="1073" d="M59 262v96h287l-8 39l-37 39h-242v103h134q-63 66 -98.5 164.5t-35.5 205.5v568h398v-588q0 -54 10 -109q9 -40 22 -63t48 -58q45 42 63 92t18 138v588h396v-568q0 -196 -129 -370h129v-103h-238l-41 -39v-39h279v-96h-277l-2 -262h-397l8 262h-287z" />
<glyph unicode="&#xa7;" horiz-adv-x="1064" d="M74 8l348 -90l4 -12q3 -22 21.5 -31.5t56.5 -11.5l67 -2q17 0 38.5 12t21.5 25v18q0 36 -64 51l-327 76q-97 23 -129.5 61.5t-32.5 133.5v495q0 66 24 94.5t82 28.5q-43 20 -59 45.5t-16 71.5v344q0 164 182 164h534q164 0 164 -154v-291l-354 90l-2 21q0 17 -15.5 27 t-39.5 10h-89q-23 0 -40 -10.5t-19 -24.5v-21q0 -19 18 -34t48 -21l342 -74q56 -18 84 -36q38 -23 51.5 -56.5t13.5 -103.5v-529q0 -47 -21.5 -68.5t-68.5 -21.5h-23q46 -19 64 -46.5t18 -80.5v-311q0 -82 -50.5 -132t-133.5 -50h-526q-71 0 -121.5 48.5t-50.5 117.5v278z M414 365q0 -43 13 -63t44 -23l107 -11h16q55 0 55 76v340q0 31 -16 51.5t-41 22.5l-98 8q-8 2 -25 2q-55 0 -55 -57v-346z" />
<glyph unicode="&#xa8;" horiz-adv-x="763" d="M0 1231v252h315v-252h-315zM446 1231v252h318v-252h-318z" />
<glyph unicode="&#xa9;" horiz-adv-x="1908" d="M119 737q0 155 60.5 297t163 244.5t244 163.5t296.5 61q155 -1 296.5 -62t244 -163t163 -244t60.5 -297t-60.5 -296.5t-163 -244t-244 -163t-296.5 -60.5t-296.5 60.5t-244 163t-163 244t-60.5 296.5zM260 737q0 -125 48 -241t136 -207q119 -121 279 -164t320 0t278 164 q121 123 164 286t0 326.5t-164 286.5q-118 120 -278.5 162.5t-320.5 0t-278 -162.5q-89 -89 -136.5 -206.5t-47.5 -244.5zM475 817q34 188 181.5 292.5t340.5 72.5q115 -18 211 -95l-90 -133q-57 48 -127 60q-121 25 -219 -43.5t-117 -188.5q-20 -127 46.5 -221.5 t187.5 -114.5q89 -13 158 19q31 13 71 47l88 -135q-88 -69 -182 -88q-199 -44 -352 53t-193 287q-19 95 -4 188z" />
<glyph unicode="&#xaa;" horiz-adv-x="999" d="M68 1196q19 92 72.5 163t122.5 105t148.5 33t147.5 -43q60 -38 88 -86v107h215l2 -725h-219v112q-36 -72 -121.5 -108.5t-189.5 -14.5q-145 28 -222.5 156t-43.5 301zM78 457v196h786v-196h-786zM283 1114q0 -51 18 -91t51.5 -65.5t79.5 -33.5q36 -6 70.5 0.5t64 25.5 t50 47.5t29 68.5t1.5 85q-7 41 -26.5 73t-48.5 52.5t-66 28.5q-90 20 -156 -36t-67 -155z" />
<glyph unicode="&#xab;" horiz-adv-x="892" d="M33 580l160 571h296l-159 -571l159 -580h-292zM401 580l160 571h297l-158 -571l158 -580h-291z" />
<glyph unicode="&#xac;" horiz-adv-x="1402" d="M59 737v295h1180v-590h-221v295h-959z" />
<glyph unicode="&#xad;" horiz-adv-x="647" d="M45 403v332h557v-332h-557z" />
<glyph unicode="&#xae;" horiz-adv-x="1908" d="M119 737q0 155 60.5 297t163 244.5t244 163.5t296.5 61q155 -1 296.5 -62t244 -163t163 -244t60.5 -297t-60.5 -296.5t-163 -244t-244 -163t-296.5 -60.5t-296.5 60.5t-244 163t-163 244t-60.5 296.5zM260 737q0 -125 48 -241t136 -207q119 -121 279 -164t320 0t278 164 q121 123 164 286t0 326.5t-164 286.5q-118 120 -278.5 162.5t-320.5 0t-278 -162.5q-89 -89 -136.5 -206.5t-47.5 -244.5zM606 309v875h275q81 0 125.5 -12t83.5 -42q70 -51 88 -141q24 -114 -21.5 -192.5t-146.5 -108.5q-9 0 -17 -4l246 -375h-209l-246 396v-396h-178z M784 776h68q62 0 99 27t48 76q15 72 -23.5 115.5t-117.5 43.5h-74v-262z" />
<glyph unicode="&#xaf;" horiz-adv-x="727" d="M0 1253v205h719v-205h-719z" />
<glyph unicode="&#xb1;" horiz-adv-x="1216" d="M90 39v139h946v-139h-946zM90 539v139h404v250h139v-250h403v-139h-403v-250h-139v250h-404z" />
<glyph unicode="&#xb4;" horiz-adv-x="563" d="M74 1225l135 256h354l-244 -256h-245z" />
<glyph unicode="&#xb5;" horiz-adv-x="1275" d="M150 -285q0 26 4 145.5t4 155.5q0 39 -3 202.5t-3 199.5v502h188v-607q0 -143 29 -194q27 -49 102 -49q117 -3 195 163q77 168 77 420v267h189v-672q0 -32 1 -54t5.5 -46.5t12.5 -39.5t23 -26t36 -12q88 0 88 168v28h43q0 -10 2 -18v-27q0 -109 -45.5 -174t-139.5 -65 q-98 -3 -155 88q-50 81 -53 264q-47 -182 -125 -266q-77 -83 -199 -86q-183 0 -231 211q0 -4 -1 -23.5t-1 -34.5q-3 -129 65 -289q66 -160 66 -188q0 -40 -22.5 -63t-63.5 -23q-50 -3 -67.5 33t-20.5 110z" />
<glyph unicode="&#xb6;" horiz-adv-x="1372" d="M59 1024q0 187 131 319t316 132h704v-162h-706q-119 0 -202.5 -85.5t-82.5 -205.5t84.5 -202.5t200.5 -82.5h123v457h176v-1194h-176v575h-123q-120 0 -222.5 59.5t-162.5 163t-60 226.5zM922 0v1194h176v-1194h-176z" />
<glyph unicode="&#xb7;" horiz-adv-x="499" d="M74 399v355h354v-355h-354z" />
<glyph unicode="&#xb8;" horiz-adv-x="391" d="M0 -352l78 282h313l-127 -282h-264z" />
<glyph unicode="&#xba;" horiz-adv-x="999" d="M59 1114q0 92 39.5 171.5t104.5 131.5t154 74.5t184 5.5q144 -28 233.5 -134.5t89.5 -248.5q2 -164 -114.5 -277.5t-288.5 -113.5q-171 0 -286.5 113t-115.5 278zM72 457v196h782v-196h-782zM274 1114q0 -83 55 -136.5t132 -53.5q77 -2 131.5 53t54.5 137q0 74 -41 123 t-108 63q-37 6 -74 0q-57 -12 -95 -51.5t-50 -99.5q-5 -25 -5 -35z" />
<glyph unicode="&#xbb;" horiz-adv-x="909" d="M33 0l160 592l-160 559h293l163 -557l-159 -594h-297zM420 0l160 592l-160 559h293l166 -557l-160 -594h-299z" />
<glyph unicode="&#xbf;" horiz-adv-x="931" d="M74 201v393q0 102 35 148.5t131 72.5q123 34 152.5 55.5t29.5 77.5v80h358v-147q0 -49 -35 -107q-13 -21 -27 -34t-46 -31q-35 -21 -121 -66q-1 -2 -15.5 -14t-21.5 -21q-31 -32 -41 -61.5t-10 -85.5v-193h123v178h303v-276q0 -81 -45 -125.5t-125 -44.5h-457 q-70 0 -98 10.5t-51 46.5q-39 63 -39 144zM426 1477h350v-353h-348z" />
<glyph unicode="&#xc0;" horiz-adv-x="1101" d="M74 0v1262q0 66 10 101t37 62q52 52 133 52h594q79 0 131 -52q28 -28 38.5 -63t10.5 -100v-1262h-397v324h-160v-324h-397zM197 1876h358l129 -254h-240zM471 637h158v428q0 52 -19.5 76t-62.5 24q-76 0 -76 -100v-428z" />
<glyph unicode="&#xc1;" horiz-adv-x="1101" d="M74 0v1262q0 66 10 101t37 62q52 52 133 52h594q79 0 131 -52q28 -28 38.5 -63t10.5 -100v-1262h-397v324h-160v-324h-397zM444 1622l136 256h354l-244 -256h-246zM471 637h158v428q0 52 -19.5 76t-62.5 24q-76 0 -76 -100v-428z" />
<glyph unicode="&#xc2;" horiz-adv-x="1101" d="M74 0v1262q0 66 10 101t37 62q52 52 133 52h594q79 0 131 -52q28 -28 38.5 -63t10.5 -100v-1262h-397v324h-160v-324h-397zM203 1622l141 254h428l137 -254h-297l-57 115l-61 -115h-291zM471 637h158v428q0 52 -19.5 76t-62.5 24q-76 0 -76 -100v-428z" />
<glyph unicode="&#xc3;" horiz-adv-x="1101" d="M74 0v1262q0 66 10 101t37 62q52 52 133 52h594q79 0 131 -52q28 -28 38.5 -63t10.5 -100v-1262h-397v324h-160v-324h-397zM186 1636q12 70 27 105.5t47 73.5q59 65 160 65q77 0 178 -37q8 -3 29 -10.5t30.5 -10.5t26 -7.5t29.5 -6.5t26 -2q53 0 70 45h188 q-9 -54 -17.5 -79.5t-25.5 -53.5q-26 -43 -76 -68.5t-108 -25.5q-85 0 -162 31l-63 24q-67 25 -96 25q-34 0 -49 -15t-23 -53h-191zM471 637h158v428q0 35 -8.5 57t-26.5 32.5t-47 10.5q-76 0 -76 -100v-428z" />
<glyph unicode="&#xc4;" horiz-adv-x="1101" d="M74 0v1262q0 66 10 101t37 62q52 52 133 52h594q79 0 131 -52q28 -28 38.5 -63t10.5 -100v-1262h-397v324h-160v-324h-397zM129 1518v245h346v-245h-346zM471 637h158v428q0 52 -19.5 76t-62.5 24q-76 0 -76 -100v-428zM623 1513v250h346v-250h-346z" />
<glyph unicode="&#xc5;" horiz-adv-x="1101" d="M74 0v1262q0 66 10 101t37 62q52 52 133 52h594q79 0 131 -52q28 -28 38.5 -63t10.5 -100v-1262h-397v324h-160v-324h-397zM317 1665q0 67 65 107t173 40q109 0 174.5 -40t65.5 -109q0 -66 -65.5 -104.5t-174.5 -38.5t-173.5 39t-64.5 106zM471 637h158v428 q0 52 -19.5 76t-62.5 24q-76 0 -76 -100v-428zM473 1667q0 -13 23 -21t59 -8t59 8t23 21q0 12 -24 21.5t-58 9.5q-33 0 -57.5 -9.5t-24.5 -21.5z" />
<glyph unicode="&#xc6;" horiz-adv-x="1486" d="M74 0v1274q0 85 34.5 145.5t81.5 59.5l58 -2h1167v-326h-395v-260h389v-311h-395v-258h389v-322h-764v309h-166v-309h-399zM475 596h168v451q0 52 -8 71.5t-33 30.5q-15 6 -37 6q-90 0 -90 -111v-448z" />
<glyph unicode="&#xc7;" horiz-adv-x="749" d="M76 274v926q0 64 21.5 123.5t58.5 99.5q33 36 61.5 45t110.5 9h381v-355h-154q-72 0 -72 -73v-623q0 -35 18.5 -54.5t51.5 -19.5h152v-352h-377q-73 0 -106.5 10.5t-65.5 42.5q-36 39 -58 98.5t-22 122.5zM207 -352l76 282h315l-129 -282h-262z" />
<glyph unicode="&#xc8;" horiz-adv-x="944" d="M74 303v860q0 151 63 240q32 45 70.5 59.5t126.5 14.5h534v-326h-393v-250h393v-334h-395v-235h393v-332h-528q-264 0 -264 303zM195 1876h358l129 -254h-240z" />
<glyph unicode="&#xc9;" horiz-adv-x="944" d="M74 303v860q0 151 63 240q32 45 70.5 59.5t126.5 14.5h534v-326h-393v-250h393v-334h-395v-235h393v-332h-528q-264 0 -264 303zM406 1622l135 256h354l-244 -256h-245z" />
<glyph unicode="&#xca;" horiz-adv-x="944" d="M74 303v860q0 151 63 240q32 45 70.5 59.5t126.5 14.5h534v-326h-393v-250h393v-334h-395v-235h393v-332h-528q-264 0 -264 303zM170 1622l141 254h428l138 -254h-297l-58 115l-61 -115h-291z" />
<glyph unicode="&#xcb;" horiz-adv-x="944" d="M74 303v860q0 151 63 240q32 45 70.5 59.5t126.5 14.5h534v-326h-393v-250h393v-334h-395v-235h393v-332h-528q-264 0 -264 303zM133 1628v252h316v-252h-316zM580 1628v252h317v-252h-317z" />
<glyph unicode="&#xcc;" horiz-adv-x="546" d="M-68 1876h359l129 -254h-240zM74 0v1477h399v-1477h-399z" />
<glyph unicode="&#xcd;" horiz-adv-x="546" d="M74 0v1477h399v-1477h-399zM147 1622l136 256h354l-244 -256h-246z" />
<glyph unicode="&#xce;" horiz-adv-x="546" d="M-63 1622l141 254h428l137 -254h-297l-57 115l-62 -115h-290zM74 0v1477h399v-1477h-399z" />
<glyph unicode="&#xcf;" horiz-adv-x="546" d="M-106 1628v252h315v-252h-315zM74 0v1477h399v-1477h-399zM340 1628v252h317v-252h-317z" />
<glyph unicode="&#xd1;" horiz-adv-x="1107" d="M29 1477h411q19 -55 24.5 -86.5t6.5 -104.5q20 58 35.5 86t40.5 53q52 52 137 52h166q107 0 156 -80q17 -26 22.5 -60.5t5.5 -111.5v-1225h-401v1022q0 57 -19 82.5t-59 25.5q-80 0 -80 -112v-1018h-399v1210q0 75 -8.5 124.5t-38.5 142.5zM178 1636q12 70 27 105.5 t47 73.5q59 65 160 65q77 0 178 -37q8 -3 29 -10.5t30.5 -10.5t26 -7.5t29.5 -6.5t26 -2q53 0 70 45h188q-9 -54 -17.5 -79.5t-25.5 -53.5q-26 -43 -76 -68.5t-108 -25.5q-85 0 -162 31l-63 24q-67 25 -97 25q-33 0 -48 -14.5t-23 -53.5h-191z" />
<glyph unicode="&#xd2;" horiz-adv-x="1095" d="M59 545v375q0 255 43 380q61 177 351 177h194q147 0 225.5 -40t118.5 -137q42 -98 45 -196q0 -8 1 -69t1 -115v-375q0 -181 -28 -279q-26 -93 -90 -157q-66 -69 -135 -89t-236 -20h-103q-163 0 -266 109q-67 70 -94 168t-27 268zM205 1876h358l129 -254h-239zM471 449 q0 -58 6.5 -79t30.5 -36q15 -12 41 -12q28 0 50 16.5t26 42.5q2 16 2 68v634q0 56 -17.5 79.5t-58.5 23.5q-44 0 -62 -23t-18 -80v-634z" />
<glyph unicode="&#xd3;" horiz-adv-x="1095" d="M59 545v375q0 255 43 380q61 177 351 177h194q147 0 225.5 -40t118.5 -137q42 -98 45 -196q0 -8 1 -69t1 -115v-375q0 -181 -28 -279q-26 -93 -90 -157q-66 -69 -135 -89t-236 -20h-103q-163 0 -266 109q-67 70 -94 168t-27 268zM422 1622l135 256h354l-243 -256h-246z M471 449q0 -58 6.5 -79t30.5 -36q15 -12 41 -12q28 0 50 16.5t26 42.5q2 16 2 68v634q0 56 -17.5 79.5t-58.5 23.5q-44 0 -62 -23t-18 -80v-634z" />
<glyph unicode="&#xd4;" horiz-adv-x="1095" d="M59 545v375q0 255 43 380q61 177 351 177h194q147 0 225.5 -40t118.5 -137q42 -98 45 -196q0 -8 1 -69t1 -115v-375q0 -181 -28 -279q-26 -93 -90 -157q-66 -69 -135 -89t-236 -20h-103q-163 0 -266 109q-67 70 -94 168t-27 268zM199 1622l141 254h428l137 -254h-297 l-57 115l-62 -115h-290zM471 449q0 -58 6.5 -79t30.5 -36q15 -12 41 -12q28 0 50 16.5t26 42.5q2 16 2 68v634q0 56 -17.5 79.5t-58.5 23.5q-44 0 -62 -23t-18 -80v-634z" />
<glyph unicode="&#xd5;" horiz-adv-x="1095" d="M59 545v375q0 255 43 380q61 177 351 177h194q147 0 225.5 -40t118.5 -137q42 -98 45 -196q0 -8 1 -69t1 -115v-375q0 -181 -28 -279q-26 -93 -90 -157q-66 -69 -135 -89t-236 -20h-103q-163 0 -266 109q-67 70 -94 168t-27 268zM170 1636q12 70 27 105.5t47 73.5 q59 65 159 65q78 0 179 -37q8 -3 29 -10.5t30.5 -10.5t26 -7.5t29.5 -6.5t26 -2q53 0 70 45h188q-9 -54 -17.5 -79.5t-25.5 -53.5q-26 -43 -76 -68.5t-108 -25.5q-85 0 -162 31l-64 24q-67 25 -96 25q-34 0 -49 -15t-23 -53h-190zM471 449q0 -58 6.5 -79t30.5 -36 q15 -12 41 -12q11 0 21.5 2.5t19.5 8t16.5 12.5t12 16.5t6.5 19.5q2 16 2 68v634q0 56 -17.5 79.5t-58.5 23.5q-44 0 -62 -23t-18 -80v-634z" />
<glyph unicode="&#xd6;" horiz-adv-x="1095" d="M59 545v375q0 255 43 380q61 177 351 177h194q147 0 225.5 -40t118.5 -137q42 -98 45 -196q0 -8 1 -69t1 -115v-375q0 -181 -28 -279q-26 -93 -90 -157q-66 -69 -135 -89t-236 -20h-103q-163 0 -266 109q-67 70 -94 168t-27 268zM133 1540v246h348v-246h-348zM471 449 q0 -58 6.5 -79t30.5 -36q15 -12 41 -12q28 0 50 16.5t26 42.5q2 16 2 68v634q0 56 -17.5 79.5t-58.5 23.5q-44 0 -62 -23t-18 -80v-634zM627 1538v248h348v-248h-348z" />
<glyph unicode="&#xd7;" horiz-adv-x="946" d="M59 221l246 246l-246 244l168 168l246 -244l246 244l170 -166l-246 -246l242 -246l-168 -168l-244 244l-246 -244z" />
<glyph unicode="&#xd8;" horiz-adv-x="1116" d="M-23 -47l150 237q-36 84 -48.5 154t-12.5 201v375q0 255 43 380q61 177 350 177h194q94 0 153 -14.5t114 -53.5l118 193l101 -66l-148 -221q47 -93 51 -211q0 -6 1 -67.5t1 -116.5v-375q0 -169 -28 -279q-25 -89 -90 -157q-64 -66 -138.5 -89.5t-216.5 -23.5 q-149 0 -254 27q-39 9 -60.5 22t-47.5 43l-135 -201zM479 449q0 -58 6 -79t29 -36q15 -12 41 -12q29 0 50.5 16.5t25.5 42.5q2 16 2 68v634q0 56 -17.5 79.5t-58.5 23.5q-30 0 -46.5 -10t-24 -32t-7.5 -61v-634z" />
<glyph unicode="&#xd9;" horiz-adv-x="1107" d="M74 190v1287h399v-1057q0 -57 17.5 -83t64.5 -26q27 0 49 15q22 14 26.5 29t4.5 75v1047h399v-1287q0 -115 -33 -152.5t-133 -37.5h-626q-101 0 -134.5 37.5t-33.5 152.5zM209 1876h358l129 -254h-239z" />
<glyph unicode="&#xda;" horiz-adv-x="1107" d="M74 190v1287h399v-1057q0 -57 17.5 -83t64.5 -26q27 0 49 15q22 14 26.5 29t4.5 75v1047h399v-1287q0 -115 -33 -152.5t-133 -37.5h-626q-101 0 -134.5 37.5t-33.5 152.5zM434 1622l135 256h355l-244 -256h-246z" />
<glyph unicode="&#xdb;" horiz-adv-x="1107" d="M74 190v1287h399v-1057q0 -57 17.5 -83t64.5 -26q27 0 49 15q22 14 26.5 29t4.5 75v1047h399v-1287q0 -115 -33 -152.5t-133 -37.5h-626q-101 0 -134.5 37.5t-33.5 152.5zM207 1622l141 254h428l137 -254h-297l-57 115l-61 -115h-291z" />
<glyph unicode="&#xdc;" horiz-adv-x="1107" d="M74 190v1287h399v-1057q0 -57 17.5 -83t64.5 -26q27 0 49 15q22 14 26.5 29t4.5 75v1047h399v-1287q0 -115 -33 -152.5t-133 -37.5h-626q-101 0 -134.5 37.5t-33.5 152.5zM129 1540v246h344v-246h-344zM639 1538v248h348v-248h-348z" />
<glyph unicode="&#xdf;" horiz-adv-x="1013" d="M74 0v1237q0 111 67 184q34 35 62 45.5t94 10.5h438q66 0 95.5 -9t58.5 -38q38 -38 47 -72q0 -1 2.5 -27.5t5 -58t2.5 -45.5q0 -98 -49 -185l-45 -84q-16 -31 -16 -75q0 -35 13.5 -73.5t53.5 -107.5q36 -62 51 -102t23 -92q8 -66 8 -115q0 -393 -258 -393h-231v299 q19 -8 30 -8q66 0 66 119q0 57 -10 88q-1 11 -6.5 29.5t-11.5 35t-15 42.5t-14 40q-25 69 -31 80q-10 33 -10 66q0 28 10 59t41 100q45 100 45 166q0 107 -68 107q-42 0 -60 -32.5t-18 -107.5v-1083h-370z" />
<glyph unicode="&#xe0;" d="M74 238v700q0 93 55.5 153t140.5 60h142q43 0 67 -11t51 -44q29 -34 64 -92v147h371v-1151h-365v158q-42 -71 -74 -107q-26 -31 -49.5 -41t-66.5 -10h-111q-97 0 -160 57q-38 33 -51.5 72t-13.5 109zM252 1479h358l129 -254h-239zM446 367q0 -43 20.5 -69t55.5 -26 q34 0 54 24t20 64v433q0 37 -20.5 59t-55.5 22q-74 0 -74 -92v-415z" />
<glyph unicode="&#xe1;" d="M74 238v700q0 93 55.5 153t140.5 60h142q43 0 67 -11t51 -44q29 -34 64 -92v147h371v-1151h-365v158q-42 -71 -74 -107q-26 -31 -49.5 -41t-66.5 -10h-111q-97 0 -160 57q-38 33 -51.5 72t-13.5 109zM412 1225l135 256h354l-244 -256h-245zM446 367q0 -43 20.5 -69 t55.5 -26q34 0 54 24t20 64v433q0 37 -20.5 59t-55.5 22q-74 0 -74 -92v-415z" />
<glyph unicode="&#xe2;" d="M74 238v700q0 93 55.5 153t140.5 60h142q43 0 67 -11t51 -44q29 -34 64 -92v147h371v-1151h-365v158q-42 -71 -74 -107q-26 -31 -49.5 -41t-66.5 -10h-111q-97 0 -160 57q-38 33 -51.5 72t-13.5 109zM182 1225l142 254h428l137 -254h-297l-57 114l-62 -114h-291zM446 367 q0 -43 20.5 -69t55.5 -26q34 0 54 24t20 64v433q0 37 -20.5 59t-55.5 22q-74 0 -74 -92v-415z" />
<glyph unicode="&#xe3;" d="M74 238v700q0 93 55.5 153t140.5 60h142q43 0 67 -11t51 -44q29 -34 64 -92v147h371v-1151h-365v158q-42 -71 -74 -107q-26 -31 -49.5 -41t-66.5 -10h-111q-97 0 -160 57q-38 33 -51.5 72t-13.5 109zM156 1239q12 70 26.5 105t46.5 73q60 66 160 66q77 0 178 -37 q9 -3 29 -10.5t30.5 -10.5t26 -7.5t29 -6.5t27.5 -2q52 0 69 45h189q-9 -54 -17.5 -79.5t-25.5 -53.5q-26 -43 -76.5 -68.5t-108.5 -25.5q-87 0 -161 30l-64 25q-67 25 -96 25q-34 0 -49 -15t-23 -53h-190zM446 367q0 -43 20.5 -69t55.5 -26q34 0 54 24t20 64v433 q0 37 -20.5 59t-55.5 22q-74 0 -74 -92v-415z" />
<glyph unicode="&#xe4;" d="M74 238v700q0 93 55.5 153t140.5 60h142q43 0 67 -11t51 -44q29 -34 64 -92v147h371v-1151h-365v158q-42 -71 -74 -107q-26 -31 -49.5 -41t-66.5 -10h-111q-97 0 -160 57q-38 33 -51.5 72t-13.5 109zM160 1223v252h315v-252h-315zM446 367q0 -43 20.5 -69t55.5 -26 q34 0 54 24t20 64v433q0 37 -20.5 59t-55.5 22q-74 0 -74 -92v-415zM606 1223v252h318v-252h-318z" />
<glyph unicode="&#xe5;" d="M74 238v700q0 93 55.5 153t140.5 60h142q43 0 67 -11t51 -44q29 -34 64 -92v147h371v-1151h-365v158q-42 -71 -74 -107q-26 -31 -49.5 -41t-66.5 -10h-111q-97 0 -160 57q-38 33 -51.5 72t-13.5 109zM293 1339q0 67 65 107.5t172 40.5q109 0 174.5 -40.5t65.5 -109.5 q0 -66 -65.5 -104.5t-174.5 -38.5t-173 39t-64 106zM446 367q0 -43 20.5 -69t55.5 -26q34 0 54 24t20 64v433q0 37 -20.5 59t-55.5 22q-74 0 -74 -92v-415zM449 1341q0 -28 81 -28q82 0 82 28q0 12 -24 21.5t-58 9.5q-33 0 -57 -9.5t-24 -21.5z" />
<glyph unicode="&#xe6;" horiz-adv-x="1503" d="M74 213v741q0 84 49 140.5t121 56.5h149q56 0 77 -6.5t52 -34.5q23 -20 37 -40t31 -58v139h682q158 0 158 -172v-535h-474v-98q0 -57 101 -57h370v-289h-833v154q-50 -93 -88 -123.5t-105 -30.5h-133q-56 0 -76 7t-51 36q-67 61 -67 170zM442 352q0 -82 72 -82 q37 0 53.5 21t16.5 65v439q0 84 -68 84q-35 0 -54.5 -21.5t-19.5 -58.5v-447zM936 651h145v152q0 34 -21 57t-52 23q-32 0 -52 -22.5t-20 -57.5v-152z" />
<glyph unicode="&#xe7;" horiz-adv-x="686" d="M76 162v803q0 98 48.5 142t156.5 44h374v-289h-127q-53 0 -68.5 -14.5t-15.5 -65.5v-432q0 -43 19 -56t82 -13h112v-281h-405q-55 0 -78.5 5.5t-44.5 25.5q-53 39 -53 131zM154 -352l75 282h316l-129 -282h-262z" />
<glyph unicode="&#xe8;" horiz-adv-x="1005" d="M74 223v740q0 99 55 151q28 25 52 31t104 6h452q66 0 100 -11.5t60 -43.5q20 -26 26.5 -53.5t6.5 -84.5v-516h-492v-94q0 -34 18.5 -46.5t65.5 -12.5h406v-289h-725q-31 3 -68 29q-37 28 -49 67t-12 127zM184 1479h359l129 -254h-240zM440 649h140v148q0 37 -18.5 58.5 t-49.5 21.5q-32 0 -52 -21.5t-20 -56.5v-150z" />
<glyph unicode="&#xe9;" horiz-adv-x="1005" d="M74 223v740q0 99 55 151q28 25 52 31t104 6h452q66 0 100 -11.5t60 -43.5q20 -26 26.5 -53.5t6.5 -84.5v-516h-492v-94q0 -34 18.5 -46.5t65.5 -12.5h406v-289h-725q-31 3 -68 29q-37 28 -49 67t-12 127zM393 1225l135 256h355l-244 -256h-246zM440 649h140v148 q0 37 -18.5 58.5t-49.5 21.5q-32 0 -52 -21.5t-20 -56.5v-150z" />
<glyph unicode="&#xea;" horiz-adv-x="1005" d="M74 223v740q0 99 55 151q28 25 52 31t104 6h452q66 0 100 -11.5t60 -43.5q20 -26 26.5 -53.5t6.5 -84.5v-516h-492v-94q0 -34 18.5 -46.5t65.5 -12.5h406v-289h-725q-31 3 -68 29q-37 28 -49 67t-12 127zM164 1225l141 254h428l137 -254h-297l-57 114l-61 -114h-291z M440 649h140v148q0 37 -18.5 58.5t-49.5 21.5q-32 0 -52 -21.5t-20 -56.5v-150z" />
<glyph unicode="&#xeb;" horiz-adv-x="1005" d="M74 223v740q0 99 55 151q28 25 52 31t104 6h452q66 0 100 -11.5t60 -43.5q20 -26 26.5 -53.5t6.5 -84.5v-516h-492v-94q0 -34 18.5 -46.5t65.5 -12.5h406v-289h-725q-31 3 -68 29q-37 28 -49 67t-12 127zM127 1231v252h315v-252h-315zM440 649h140v148q0 37 -18.5 58.5 t-49.5 21.5q-32 0 -52 -21.5t-20 -56.5v-150zM573 1231v252h318v-252h-318z" />
<glyph unicode="&#xec;" horiz-adv-x="518" d="M-82 1479h358l130 -254h-240zM76 0v1151h368v-1151h-368z" />
<glyph unicode="&#xed;" horiz-adv-x="518" d="M76 0v1151h368v-1151h-368zM154 1225l135 256h354l-244 -256h-245z" />
<glyph unicode="&#xee;" horiz-adv-x="518" d="M-78 1225l141 254h429l137 -254h-297l-58 114l-61 -114h-291zM76 0v1151h368v-1151h-368z" />
<glyph unicode="&#xef;" horiz-adv-x="518" d="M-119 1231v252h316v-252h-316zM76 0v1151h368v-1151h-368zM328 1231v252h317v-252h-317z" />
<glyph unicode="&#xf1;" horiz-adv-x="1036" d="M74 1151h366v-160q20 35 37.5 60t42 49.5t54.5 37.5t65 13h152q90 0 143 -66q21 -29 24 -57q5 -40 5 -147v-881h-371v793q0 88 -66 88q-82 0 -82 -95v-786h-366zM152 1239q12 70 26.5 105t46.5 73q60 66 160 66q77 0 178 -37q9 -3 24.5 -8.5t24.5 -9t23 -7.5t24 -6.5 t22.5 -4t23.5 -1.5q52 0 69 45h189q-9 -54 -17.5 -79.5t-25.5 -53.5q-26 -43 -76.5 -68.5t-108.5 -25.5q-88 0 -162 30l-63 25q-67 25 -96 25q-34 0 -49 -15t-23 -53h-190z" />
<glyph unicode="&#xf2;" horiz-adv-x="1038" d="M74 190v789q0 59 35 112t88 58q12 2 86 2h475q74 0 84 -2q30 -3 65 -33q58 -47 58 -137v-789q0 -97 -50.5 -143.5t-156.5 -46.5h-477q-207 0 -207 190zM172 1479h358l129 -254h-239zM446 356q0 -40 19.5 -62t54.5 -22t54.5 22t19.5 62v447q0 31 -21 52.5t-53 21.5 q-31 0 -52.5 -21.5t-21.5 -52.5v-447z" />
<glyph unicode="&#xf3;" horiz-adv-x="1038" d="M74 190v789q0 59 35 112t88 58q12 2 86 2h475q74 0 84 -2q30 -3 65 -33q58 -47 58 -137v-789q0 -97 -50.5 -143.5t-156.5 -46.5h-477q-207 0 -207 190zM391 1225l135 256h355l-244 -256h-246zM446 356q0 -40 19.5 -62t54.5 -22t54.5 22t19.5 62v447q0 31 -21 52.5 t-53 21.5q-31 0 -52.5 -21.5t-21.5 -52.5v-447z" />
<glyph unicode="&#xf4;" horiz-adv-x="1038" d="M74 190v789q0 59 35 112t88 58q12 2 86 2h475q74 0 84 -2q30 -3 65 -33q58 -47 58 -137v-789q0 -97 -50.5 -143.5t-156.5 -46.5h-477q-207 0 -207 190zM172 1225l141 254h428l138 -254h-297l-58 114l-61 -114h-291zM446 356q0 -40 19.5 -62t54.5 -22t54.5 22t19.5 62v447 q0 31 -21 52.5t-53 21.5q-31 0 -52.5 -21.5t-21.5 -52.5v-447z" />
<glyph unicode="&#xf5;" horiz-adv-x="1038" d="M74 190v789q0 59 35 112t88 58q12 2 86 2h475q74 0 84 -2q30 -3 65 -33q58 -47 58 -137v-789q0 -97 -50.5 -143.5t-156.5 -46.5h-477q-207 0 -207 190zM154 1239q12 70 26.5 105t46.5 73q60 66 160 66q77 0 178 -37q9 -3 29 -10.5t30.5 -10.5t26 -7.5t29 -6.5t27.5 -2 q52 0 69 45h189q-9 -54 -17.5 -79.5t-25.5 -53.5q-26 -43 -76.5 -68.5t-108.5 -25.5q-88 0 -162 30l-63 25q-67 25 -96 25q-34 0 -49 -15t-23 -53h-190zM446 356q0 -40 19.5 -62t54.5 -22t54.5 22t19.5 62v447q0 31 -21 52.5t-53 21.5q-31 0 -52.5 -21.5t-21.5 -52.5v-447z " />
<glyph unicode="&#xf6;" horiz-adv-x="1038" d="M74 190v789q0 59 35 112t88 58q12 2 86 2h475q74 0 84 -2q30 -3 65 -33q58 -47 58 -137v-789q0 -97 -50.5 -143.5t-156.5 -46.5h-477q-207 0 -207 190zM143 1223v252h316v-252h-316zM446 356q0 -40 19.5 -62t54.5 -22t54.5 22t19.5 62v447q0 31 -21 52.5t-53 21.5 q-31 0 -52.5 -21.5t-21.5 -52.5v-447zM590 1223v252h317v-252h-317z" />
<glyph unicode="&#xf7;" horiz-adv-x="1216" d="M88 414v139h948v-139h-948zM446 207q0 49 34.5 83t82.5 34q49 0 82 -33.5t33 -83.5q0 -47 -33.5 -82t-81.5 -35t-82.5 34t-34.5 83zM446 758q0 50 33.5 81.5t83.5 34.5q48 0 81.5 -34.5t33.5 -81.5t-33.5 -82t-81.5 -35t-82.5 33.5t-34.5 83.5z" />
<glyph unicode="&#xf8;" horiz-adv-x="1046" d="M6 -6l84 108q-16 49 -16 88v789q0 59 35 112t88 58q12 2 86 2h475q66 0 84 -2q20 0 47 -21l76 111l73 -57l-92 -113q19 -53 19 -90v-789q0 -97 -50.5 -143.5t-156.5 -46.5h-477q-86 0 -125 31l-74 -88zM446 356q0 -40 19.5 -62t54.5 -22t54.5 22t19.5 62v447 q0 31 -21 52.5t-53 21.5q-31 0 -52.5 -21.5t-21.5 -52.5v-447z" />
<glyph unicode="&#xf9;" horiz-adv-x="1036" d="M74 283v868h368v-799q0 -47 17.5 -66.5t60.5 -19.5q40 0 57 20t17 66v799h369v-868q0 -283 -269 -283h-354q-266 0 -266 283zM176 1479h359l129 -254h-240z" />
<glyph unicode="&#xfa;" horiz-adv-x="1036" d="M74 283v868h368v-799q0 -47 17.5 -66.5t60.5 -19.5q40 0 57 20t17 66v799h369v-868q0 -283 -269 -283h-354q-266 0 -266 283zM410 1225l135 256h354l-244 -256h-245z" />
<glyph unicode="&#xfb;" horiz-adv-x="1036" d="M74 283v868h368v-799q0 -47 17.5 -66.5t60.5 -19.5q40 0 57 20t17 66v799h369v-868q0 -283 -269 -283h-354q-266 0 -266 283zM172 1225l141 254h428l138 -254h-297l-58 114l-61 -114h-291z" />
<glyph unicode="&#xfc;" horiz-adv-x="1036" d="M74 283v868h368v-799q0 -47 17.5 -66.5t60.5 -19.5q40 0 57 20t17 66v799h369v-868q0 -283 -269 -283h-354q-266 0 -266 283zM137 1223v252h316v-252h-316zM584 1223v252h317v-252h-317z" />
<glyph unicode="&#xff;" horiz-adv-x="1003" d="M59 801v350h375v-485l-2 -99q0 -74 10 -125q7 -43 19 -71t41 -76q69 123 69 272v584h373v-350q0 -389 -121 -625q-24 -47 -51.5 -82t-85.5 -94v-399h-369l7 399q-54 54 -68 72q-122 141 -174 444q-23 135 -23 285zM125 1231v252h315v-252h-315zM571 1231v252h318v-252 h-318z" />
<glyph unicode="&#x152;" horiz-adv-x="1431" d="M59 354v701q0 124 28.5 222t78.5 142q27 25 75 41.5t97 16.5h1022v-326h-399v-258h395v-315h-400v-259h398v-319h-1043q-126 0 -186 76q-36 44 -51 104.5t-15 173.5zM430 416q0 -41 21.5 -66.5t56.5 -25.5q78 0 78 98v637q0 94 -72 94q-38 0 -61 -25.5t-23 -68.5v-643z " />
<glyph unicode="&#x153;" horiz-adv-x="1509" d="M74 184v809q0 83 61 129q35 24 72 27q8 2 63 2h1002q62 0 87 -12t50 -54q27 -60 27 -108v-531h-480v-92q0 -27 9 -45q8 -14 18 -17t47 -3h406v-289h-1145q-66 0 -96.5 6.5t-59.5 28.5q-61 50 -61 149zM438 348q0 -37 21.5 -58.5t58.5 -21.5q72 0 72 84v447q0 40 -19.5 61 t-54.5 21q-78 0 -78 -84v-449zM932 651h151v166q0 29 -22.5 48.5t-54.5 19.5q-30 0 -52 -22t-22 -52v-160z" />
<glyph unicode="&#x178;" horiz-adv-x="1073" d="M59 909v568h398v-588q0 -54 10 -109q9 -40 22 -63t48 -58q45 42 63 92t18 138v588h396v-568q0 -89 -28 -178.5t-79 -161.5q-30 -45 -64.5 -79t-107.5 -93v-397h-397v397q-72 59 -107 93t-67 79q-105 148 -105 340zM160 1628v252h315v-252h-315zM606 1628v252h318v-252 h-318z" />
<glyph unicode="&#x2c6;" horiz-adv-x="706" d="M0 1225l141 254h428l138 -254h-297l-58 114l-61 -114h-291z" />
<glyph unicode="&#x2dc;" horiz-adv-x="811" d="M0 1239q12 69 27 104.5t47 73.5q60 66 159 66q78 0 179 -37q10 -3 29.5 -10.5t30 -10.5t25.5 -7.5t28.5 -6.5t27.5 -2q53 0 70 45h188q-9 -54 -17.5 -79.5t-25.5 -53.5q-26 -43 -76 -68.5t-108 -25.5q-88 0 -162 30l-64 25q-67 25 -96 25q-34 0 -49 -15t-23 -53h-190z " />
<glyph unicode="&#x2000;" horiz-adv-x="940" />
<glyph unicode="&#x2001;" horiz-adv-x="1880" />
<glyph unicode="&#x2002;" horiz-adv-x="940" />
<glyph unicode="&#x2003;" horiz-adv-x="1880" />
<glyph unicode="&#x2004;" horiz-adv-x="626" />
<glyph unicode="&#x2005;" horiz-adv-x="470" />
<glyph unicode="&#x2006;" horiz-adv-x="313" />
<glyph unicode="&#x2007;" horiz-adv-x="313" />
<glyph unicode="&#x2008;" horiz-adv-x="235" />
<glyph unicode="&#x2009;" horiz-adv-x="376" />
<glyph unicode="&#x200a;" horiz-adv-x="104" />
<glyph unicode="&#x2010;" horiz-adv-x="647" d="M45 403v332h557v-332h-557z" />
<glyph unicode="&#x2011;" horiz-adv-x="647" d="M45 403v332h557v-332h-557z" />
<glyph unicode="&#x2012;" horiz-adv-x="647" d="M45 403v332h557v-332h-557z" />
<glyph unicode="&#x2013;" horiz-adv-x="1052" d="M59 348v238h934v-238h-934z" />
<glyph unicode="&#x2014;" horiz-adv-x="2039" d="M61 586v295h1917v-295h-1917z" />
<glyph unicode="&#x2018;" horiz-adv-x="604" d="M0 961l305 514h256l-201 -514h-360z" />
<glyph unicode="&#x2019;" horiz-adv-x="604" d="M0 961l199 514h362l-307 -514h-254z" />
<glyph unicode="&#x201a;" horiz-adv-x="561" d="M-45 -209l201 514h360l-305 -514h-256z" />
<glyph unicode="&#x201c;" horiz-adv-x="1017" d="M0 961l305 514h256l-201 -514h-360zM414 961l305 514h256l-201 -514h-360z" />
<glyph unicode="&#x201d;" horiz-adv-x="1017" d="M0 961l199 514h362l-307 -514h-254zM414 961l198 514h363l-307 -514h-254z" />
<glyph unicode="&#x201e;" horiz-adv-x="974" d="M-45 -209l201 514h360l-305 -514h-256zM371 -209l198 514h361l-305 -514h-254z" />
<glyph unicode="&#x2022;" horiz-adv-x="499" d="M74 399v355h354v-355h-354z" />
<glyph unicode="&#x2026;" horiz-adv-x="2039" d="M121 193q0 91 64.5 156t156.5 65t156.5 -65t64.5 -156q0 -92 -64.5 -157t-156.5 -65t-156.5 65t-64.5 157zM803 193q0 91 64.5 156t156.5 65t156.5 -65t64.5 -156q0 -92 -64.5 -157t-156.5 -65t-156.5 65t-64.5 157zM1485 193q0 91 64.5 156t156.5 65t156.5 -65 t64.5 -156q0 -92 -64.5 -157t-156.5 -65t-156.5 65t-64.5 157z" />
<glyph unicode="&#x202f;" horiz-adv-x="376" />
<glyph unicode="&#x2039;" horiz-adv-x="579" d="M35 580l178 571h332l-180 -571l178 -580h-324z" />
<glyph unicode="&#x203a;" horiz-adv-x="579" d="M35 0l178 592l-176 559h323l185 -557l-178 -594h-332z" />
<glyph unicode="&#x205f;" horiz-adv-x="470" />
<glyph unicode="&#x20ac;" horiz-adv-x="1218" d="M74 537l51 161h111v80h-162l51 162h111v260q0 64 21 123.5t58 99.5q33 36 61.5 45t110.5 9h656l-115 -355h-313q-72 0 -72 -73v-109h328l-51 -162h-277v-80h252l-51 -161h-201v-111q0 -35 18.5 -54.5t51.5 -19.5h317v-352h-543q-73 0 -106.5 10.5t-65.5 42.5 q-36 39 -57.5 98t-21.5 123v263h-162z" />
<glyph unicode="&#x2122;" horiz-adv-x="1554" d="M59 1335v140h455v-140l-152 2v-600h-153v600zM489 737l121 738h152l131 -357q24 -64 31.5 -99.5t9.5 -84.5q2 48 10 85.5t31 98.5l131 357h154l118 -738h-147l-62 391q-10 58 -4 152q-4 -19 -13 -51t-13 -47l-11 -39q-22 -59 -47 -128.5t-53.5 -148.5t-46.5 -129h-94 l-142 391q-6 23 -21 73t-22 79q9 -74 -4 -152l-61 -391h-148z" />
</font>
</defs>
</svg>
